<svg width="730" height="80" viewBox="0 0 730 80" fill="none" xmlns="http://www.w3.org/2000/svg">
<path id="spikes" d="M68 1L35 77L2 1H35H68ZM68 1L101 77L134 1M68 1H101H134M134 1L167 77L200 1M134 1H167H200M200 1L233 77L266 1M200 1H233H266M266 1L299 77L332 1M266 1H299H332M332 1L365 77L398 1M332 1H365H398M398 1L431 77L464 1M398 1H431H464M464 1L497 77L530 1M464 1H497H530M530 1L563 77L596 1M530 1H563H596M596 1L629 77L662 1M596 1H629H662M662 1L695 77L728 1H695H662Z" stroke="black" stroke-width="2"/>
</svg>
