<svg width="675" height="50" viewBox="0 0 675 50" fill="none" xmlns="http://www.w3.org/2000/svg">
<g id="spikes">
<path d="M123.5 1H62.5L91.5 49L123.5 1Z" fill="#FD5959"/>
<path d="M62.5 1H1.50003L30.5 49L62.5 1Z" fill="#FD5959"/>
<path d="M184.5 1H123.5L152.5 49L184.5 1Z" fill="#FD5959"/>
<path d="M245.5 1H184.5L213.5 49L245.5 1Z" fill="#FD5959"/>
<path d="M307.5 1H246.5L275.5 49L307.5 1Z" fill="#FD5959"/>
<path d="M368.5 1H307.5L336.5 49L368.5 1Z" fill="#FD5959"/>
<path d="M429.5 1H368.5L397.5 49L429.5 1Z" fill="#FD5959"/>
<path d="M490.5 1H429.5L458.5 49L490.5 1Z" fill="#FD5959"/>
<path d="M551.5 1H490.5L519.5 49L551.5 1Z" fill="#FD5959"/>
<path d="M612.5 1H551.5L580.5 49L612.5 1Z" fill="#FD5959"/>
<path d="M673.5 1H612.5L641.5 49L673.5 1Z" fill="#FD5959"/>
<path d="M62.5 1H123.5M62.5 1L91.5 49L123.5 1M62.5 1H1.50003L30.5 49L62.5 1ZM123.5 1H184.5M123.5 1L152.5 49L184.5 1M184.5 1H245.5L213.5 49L184.5 1ZM307.5 1H246.5L275.5 49L307.5 1ZM307.5 1H368.5M307.5 1L336.5 49L368.5 1M368.5 1H429.5M368.5 1L397.5 49L429.5 1M429.5 1H490.5M429.5 1L458.5 49L490.5 1M490.5 1H551.5M490.5 1L519.5 49L551.5 1M551.5 1H612.5M551.5 1L580.5 49L612.5 1M612.5 1H673.5L641.5 49L612.5 1Z" stroke="black"/>
</g>
</svg>
